<svg id="Layer_1" data-name="Layer 1" xmlns="http://www.w3.org/2000/svg" viewBox="0 0 203 48.99"><defs><style>.cls-1{fill:#231f00;}</style></defs><path class="cls-1" d="M-1920.5,1435.47a74,74,0,0,1-44.59-20.3.6.6,0,0,0-1,.67l5.71,13.28,2.32,5.77-4.75.08c-3.46,0-6.92.14-10.38.16l-10.37,0q-24.23,0-48.36-1.49c-30.47-1.86-60.84-5.34-90.53-11.52-.72-.14-.83,1-.12,1.16a585.52,585.52,0,0,0,82.25,11.43,827.76,827.76,0,0,0,83.52,1.43.67.67,0,0,0,.57-.89c-2.58-5.73-5.13-11.52-7.63-17.3a74.91,74.91,0,0,0,41.58,18.48c-12.57,8.87-25.51,17.39-38.79,25.71q1.93-8.12,3.79-16.23a.59.59,0,0,0-.63-.7c-13.13-.29-26.25-.31-39.37-.24l-39.33.14c-26.67-.05-53.47-.51-80.26.2-.86,0-1,1.37-.13,1.35,14.44-.4,28.86-.45,43.27-.4l43.17.1,45.2-.15h9.68l9.7.06,4.74.06c2.63,0,2.61.17,2,2.88l-3.31,14.09a.6.6,0,0,0,.92.6q21.27-13.26,41.36-27.39A.6.6,0,0,0-1920.5,1435.47Z" transform="translate(2123 -1415.03)"></path></svg> 
