<svg id="visual" viewBox="0 0 900 600" width="900" height="600" xmlns="http://www.w3.org/2000/svg" xmlns:xlink="http://www.w3.org/1999/xlink" version="1.1"><path d="M0 103L82 61L164 85L245 79L327 67L409 79L491 103L573 73L655 97L736 79L818 55L900 103L900 0L818 0L736 0L655 0L573 0L491 0L409 0L327 0L245 0L164 0L82 0L0 0Z" fill="#f6f6f6"></path><path d="M0 193L82 145L164 151L245 157L327 145L409 157L491 151L573 127L655 169L736 139L818 145L900 151L900 101L818 53L736 77L655 95L573 71L491 101L409 77L327 65L245 77L164 83L82 59L0 101Z" fill="#dfcffa"></path><path d="M0 361L82 301L164 277L245 319L327 283L409 367L491 313L573 313L655 295L736 259L818 343L900 361L900 149L818 143L736 137L655 167L573 125L491 149L409 155L327 143L245 155L164 149L82 143L0 191Z" fill="#c6a9fc"></path><path d="M0 517L82 511L164 481L245 475L327 493L409 529L491 517L573 523L655 511L736 463L818 463L900 523L900 359L818 341L736 257L655 293L573 311L491 311L409 365L327 281L245 317L164 275L82 299L0 359Z" fill="#a983fe"></path><path d="M0 601L82 601L164 601L245 601L327 601L409 601L491 601L573 601L655 601L736 601L818 601L900 601L900 521L818 461L736 461L655 509L573 521L491 515L409 527L327 491L245 473L164 479L82 509L0 515Z" fill="#865dff"></path></svg>